<?xml version="1.0" encoding="UTF-8"?>
<svg width="658px" height="472px" viewBox="0 0 658 472" version="1.1" xmlns="http://www.w3.org/2000/svg" xmlns:xlink="http://www.w3.org/1999/xlink">
    <!-- Generator: Sketch 53.2 (72643) - https://sketchapp.com -->
    <title>astronautas</title>
    <desc>Created with Sketch.</desc>
    <defs>
        <polygon id="path-1" points="1 0.0367 1.947675 0.0367 1.947675 1 1 1"></polygon>
        <polygon id="path-3" points="0.328867356 0.732921429 623.866352 0.732921429 623.866352 12.1887071 0.328867356 12.1887071"></polygon>
    </defs>
    <g id="Page-1" stroke="none" stroke-width="1" fill="none" fill-rule="evenodd">
        <g id="/" transform="translate(-511.000000, -288.000000)">
            <g id="astronautas" transform="translate(510.000000, 288.000000)">
                <path d="M40,176.625367 L180.900011,141.331507 C204.758171,135.35529 228.891356,150.06399 234.626402,174.076007 L274,338.962343 L88.9783057,381 L40,176.625367 Z" id="Fill-1" fill="#98CA3F"></path>
                <polygon id="Fill-3" fill="#76A700" points="254 232.346453 303.099452 436 599 381.012134 531.547267 163"></polygon>
                <path d="M632.456276,127.704715 C586.064623,147.338509 531,162.770984 531,162.770984 L598.280359,381 C598.280359,381 637.525779,366.706303 644.02085,349.408111 C666.465724,289.641591 639.759782,124 639.759782,124 L632.456276,127.704715" id="Fill-5" fill="#98CA3F"></path>
                <polygon id="Fill-7" fill="#3FCDB5" points="485.076923 255 538 428.38623 476.807692 438 363.6848 438 323 278.20747"></polygon>
                <path d="M437.349669,391.689753 C436.496399,381.141452 425.679405,375.44094 418.563908,368.027597 C397.784112,346.647677 385.260579,320.135727 378.429812,290.773059 C376.64034,283.607966 377.374742,276.212159 377.337884,269 L325,276.488094 L365.643663,436 L439,436 C436.055021,421.286827 438.56415,406.281108 437.349669,391.689753" id="Fill-9" fill="#06BE9F"></path>
                <path d="M284.617915,306.660698 L323.343592,453 L388,453 L313.315096,201 C286.578908,227.714472 274.345566,267.486421 284.617915,306.660698" id="Fill-11" fill="#EDEDED"></path>
                <path d="M242.349669,391.689753 C241.495478,381.141452 230.679405,375.44094 223.562986,368.027597 C202.784112,346.647677 190.260579,320.135727 183.429812,290.773059 C181.64034,283.607966 182.374742,276.212159 182.337884,269 L130,276.488094 L170.643663,436 L244,436 C241.055021,421.286827 243.56415,406.281108 242.349669,391.689753" id="Fill-13" fill="#FFAA4A"></path>
                <path d="M345,427.38623 L291.988424,254 L182.118938,269.705234 C182.155895,276.931047 181.419521,284.339909 183.213798,291.517649 C190.062913,320.932143 202.620086,347.490889 223.454774,368.908546 C230.590308,376.334049 241.435433,382.045548 242.291918,392.612467 C243.509662,407.228652 240.993793,422.261782 243.946682,437 L283.705365,437 L345,427.38623 Z" id="Fill-15" fill="#FFB25B"></path>
                <path d="M96.6204903,306.684319 L135.082719,453 L186,453 L122.491804,204 C97.7268051,230.633028 86.7126424,268.936677 96.6204903,306.684319" id="Fill-17" fill="#EDEDED"></path>
                <path d="M348.794003,405.649116 C338.094089,415.761214 325.051787,423.339983 310.187832,427.345706 C258.092226,441.384188 203.400304,406.273684 188.029414,348.924129 C172.658524,291.573652 202.429676,233.700087 254.526202,219.660683 C267.610825,216.134687 280.857373,215.711236 293.606186,217.960419 C268.361567,180.010298 221.041821,160.409747 174.56298,172.613272 C153.629606,178.10984 135.701961,189.315163 122,204.125821 L184.934443,452 L361,452 L348.794003,405.649116 Z" id="Fill-19" fill="#FFFFFF"></path>
                <path d="M274,263 C274,263 249.467003,318.72151 196,322 L213.768906,281.538722 L274,263 Z" id="Fill-21" fill="#FF8D43"></path>
                <path d="M269,265.989211 C269,265.989211 279.743887,285.324763 302,283.927791 L293.063917,255 L269,265.989211 Z" id="Fill-23" fill="#FF8D43"></path>
                <path d="M276.355727,265.236986 C287.998867,262.106732 299.638327,260.508931 311,260.305525 L308.43185,250.492303 C305.259375,238.369818 300.175504,227.257003 293.595079,217.385797 C280.84999,215.141881 267.605436,215.564341 254.524611,219.083 C203.970132,232.677193 174.445603,287.47182 186.807125,343 C199.816204,307.32744 232.672338,276.984872 276.355727,265.236986" id="Fill-25" fill="#C9C9C9"></path>
                <path d="M194.700247,352.441985 C200.292832,369.392412 195.334977,386.294076 183.626819,390.191488 C171.917745,394.090739 157.892318,383.509948 152.299733,366.5586 C146.707149,349.608173 151.665003,332.706509 163.374077,328.808177 C175.082235,324.909846 189.107662,335.490637 194.700247,352.441985" id="Fill-27" fill="#98CA3F"></path>
                <path d="M281.894638,343.885226 C280.930244,344.091305 280.673766,345.256175 281.481056,345.78447 C283.083331,346.834075 285.145562,347.270683 287.210632,346.828836 C289.275703,346.386989 290.91962,345.158375 291.858461,343.565629 C292.331666,342.764018 291.545198,341.822691 290.581751,342.02877 L281.894638,343.885226 Z" id="Fill-29" fill="#FF8D43"></path>
                <path d="M470.894676,339.8861 C469.930241,340.091305 469.673752,341.256175 470.481076,341.78447 C472.082474,342.834075 474.14574,343.270683 476.209953,342.828836 C478.276058,342.386989 479.920046,341.158375 480.858927,339.565629 C481.331207,338.764018 480.544705,337.822691 479.581216,338.02877 L470.894676,339.8861 Z" id="Fill-31" fill="#008A99"></path>
                <g id="Group-35" transform="translate(0.000000, 471.000000)">
                    <mask id="mask-2" fill="white">
                        <use xlink:href="#path-1"></use>
                    </mask>
                    <g id="Clip-34"></g>
                    <path d="M1.4473,1.0002 C2.0443,1.0002 2.0453,0.0732 1.4473,0.0732 C0.8513,0.0732 0.8503,1.0002 1.4473,1.0002" id="Fill-33" fill="#FFAA4A" mask="url(#mask-2)"></path>
                </g>
                <path d="M479,259 C479,259 472.937704,288.356981 457.310801,287.445717 C454.000651,287.251969 455.123127,281.335705 455.123127,281.335705 C455.123127,281.335705 431.90773,295.151137 424.964083,291.332727 C418.019511,287.515244 431.722037,275.322103 431.722037,275.322103 L479,259 Z" id="Fill-36" fill="#008A99"></path>
                <path d="M452.374534,356.086563 C450.868294,356.445077 450.493562,358.47946 451.785931,359.348671 C459.520948,364.552732 470.659629,366.493751 482.126429,363.769415 C493.679143,361.024539 497.460281,355.468499 500.84932,347.530766 C501.430612,346.169531 500.239695,344.712133 498.823026,345.049174 L452.374534,356.086563 Z" id="Fill-38" fill="#FFFFFF"></path>
                <path d="M452.435791,309.340192 C453.118266,309.1984 453.660393,308.708902 453.800741,308.098384 C454.685023,304.250134 452.595402,301.267988 448.142803,302.158478 C443.770927,303.031807 432.028504,308.222113 429.120647,312.843445 C428.7418,313.444029 429.310529,314.133119 430.057215,313.977781 L452.435791,309.340192 Z" id="Fill-40" fill="#008A99"></path>
                <path d="M475.220159,301.944355 C474.691258,302.107949 474.093657,301.903682 473.709686,301.425554 C471.286341,298.404035 471.282576,294.891734 474.711963,293.79719 C478.078295,292.723435 488.469975,292.34744 492.625895,295.196326 C493.166089,295.566898 493.109623,296.414695 492.531784,296.593654 L475.220159,301.944355 Z" id="Fill-42" fill="#008A99"></path>
                <path d="M116,457 L33.0239192,153.150021 C31.6229502,147.993158 26.3149364,144.944243 21.1599231,146.337242 C15.9920063,147.733931 12.937525,153.063305 14.3412591,158.234006 L95.3688869,457 L116,457 Z" id="Fill-44" fill="#FFFFFF"></path>
                <polygon id="Fill-46" fill="#FFFFFF" points="262.261261 38.4063328 267.071997 23.849138 255 14.3019819 270.434904 14.3449748 275.85205 0 280.581685 14.5828076 296 15.2633752 283.488401 24.2342442 287.600566 39 275.139656 29.9614401"></polygon>
                <polygon id="Fill-48" fill="#FFFFFF" points="85.1365417 135.574137 88.5385579 125.12268 80 118.269481 90.9173623 118.299497 94.7485874 108 98.0938102 118.471156 109 118.958928 100.149544 125.399397 103.05811 136 94.2439643 129.510754"></polygon>
                <polygon id="Fill-50" fill="#98CA3F" points="161.198259 72.4821443 165.305495 59.790981 155 51.4683004 168.175633 51.5052901 172.801063 39 176.838051 51.7133571 190 52.3070416 179.318632 60.1275872 182.830127 73 172.19255 65.1193462"></polygon>
                <polygon id="Fill-52" fill="#FFFFFF" points="371.738739 38.4063328 366.928003 23.849138 379 14.3019819 363.565096 14.3449748 358.14795 0 353.418315 14.5828076 338 15.2633752 350.511599 24.2342442 346.399434 39 358.860344 29.9614401"></polygon>
                <polygon id="Fill-54" fill="#FFFFFF" points="549.863458 135.574137 546.461442 125.12268 555 118.269481 544.082638 118.299497 540.251413 108 536.90619 118.471156 526 118.958928 534.850456 125.399397 531.94189 136 540.756036 129.510754"></polygon>
                <polygon id="Fill-56" fill="#98CA3F" points="472.800829 72.4821443 468.694505 59.790981 479 51.4683004 465.824367 51.5052901 461.198937 39 457.161949 51.7133571 444 52.3070416 454.680456 60.1275872 451.169873 73 461.80745 65.1193462"></polygon>
                <path d="M537.211319,405.435561 C526.49959,415.538534 513.442886,423.110464 498.562516,427.112572 C446.409382,441.138385 391.657065,406.059566 376.269201,348.761764 C360.881337,291.46304 390.685365,233.641701 442.83942,219.614966 C455.938492,216.092152 469.199668,215.669083 481.96256,217.916236 C456.690063,180.000362 409.318984,160.417499 362.787896,172.610012 C343.245207,177.731088 326.318281,187.812861 313,201.149228 L387.470004,453 L550,453 L537.211319,405.435561 Z" id="Fill-58" fill="#FFFFFF"></path>
                <path d="M259,346.5 C259,349.537634 254.074995,352 247.999543,352 C241.925005,352 237,349.537634 237,346.5 C237,343.462366 241.925005,341 247.999543,341 C254.074995,341 259,343.462366 259,346.5" id="Fill-60" fill="#FF925B"></path>
                <path d="M309.206417,336.355138 C310.099452,338.719054 313.72231,339.552214 318,338.636208 L314.868945,328 C310.677298,330.387451 308.253605,333.836829 309.206417,336.355138" id="Fill-62" fill="#FF925B"></path>
                <path d="M464.355727,265.236986 C475.998867,262.106732 487.638327,260.508931 499,260.305525 L496.43277,250.492303 C493.260295,238.369818 488.175504,227.257003 481.595079,217.385797 C468.84999,215.141881 455.605436,215.564341 442.524611,219.083 C391.970132,232.677193 362.445603,287.47182 374.807125,343 C387.816204,307.32744 420.672338,276.984872 464.355727,265.236986" id="Fill-64" fill="#C9C9C9"></path>
                <path d="M382.700247,352.441985 C388.292832,369.392412 383.334977,386.294076 371.626819,390.191488 C359.917745,394.090739 345.892318,383.509948 340.299733,366.5586 C334.707149,349.608173 339.665003,332.706509 351.374077,328.808177 C363.082235,324.909846 377.108578,335.490637 382.700247,352.441985" id="Fill-66" fill="#98CA3F"></path>
                <path d="M310.874438,351.74216 C311.315913,350.844915 310.528293,349.839569 309.524102,350.02154 L303.400847,351.131385 C301.929266,351.398937 300.419739,351.38092 298.951861,351.09445 C296.700991,350.654836 293.713405,350.599885 290.490737,351.034994 C286.433248,351.580908 282.951433,352.774533 280.948603,354.150128 C279.577904,355.091515 278.017474,355.735621 276.369119,356.034703 L265.01944,358.093141 C263.962493,358.285022 263.633933,359.601161 264.481711,360.244367 C266.824208,362.018138 269.584115,363.460396 272.637413,364.512587 C273.791539,364.909861 274.869773,365.487305 275.852677,366.196272 C278.925411,368.411458 286.808084,370.621239 292.614811,369.839303 C298.738066,369.014126 303.724779,364.534207 304.892788,361.63798 C305.364805,360.469579 306.038585,359.393065 306.838236,358.407537 C308.402369,356.47792 309.641643,354.245618 310.874438,351.74216" id="Fill-68" fill="#FF8867"></path>
                <path d="M277.795635,358.677713 C281.418514,357.00262 294.458302,354.742876 303.68361,354.004131 C304.601075,353.93071 305.185084,354.850742 304.946506,355.583142 L302.166478,357.783061 C302.049492,358.13929 301.75104,358.438414 301.344813,358.600666 C298.868764,359.58868 289.604767,362.93524 280.423673,361.748716 C280.087454,361.705207 279.780711,361.567429 279.549503,361.363481 L277.413358,360.651929 C276.730786,360.051869 276.91778,359.083796 277.795635,358.677713" id="Fill-70" fill="#FFFFFF"></path>
                <path d="M153.953467,315.186509 C155.984181,316.617181 158.777562,316.111472 160.191711,314.057031 L162.751698,310.336727 L159.074359,307.745901 L156.513453,311.466205 L145.481436,303.695585 L153.164153,292.533743 L160.518831,297.714466 L155.39702,305.156004 L159.074359,307.745901 L164.195251,300.305292 C165.61032,298.250852 165.110451,295.424833 163.078818,293.994162 L155.724139,288.813438 C153.693425,287.382767 150.900044,287.888475 149.485894,289.943846 L141.804096,301.104758 C140.389947,303.159199 140.889815,305.985217 142.92053,307.415889 L153.953467,315.186509 Z" id="Fill-72" fill="#98CA3F"></path>
                <path d="M344.953467,315.186509 C346.984181,316.617181 349.776643,316.111472 351.190793,314.057031 L353.751698,310.336727 L350.074359,307.745901 L347.513453,311.466205 L336.481436,303.695585 L344.163234,292.533743 L351.518831,297.714466 L346.39702,305.156004 L350.074359,307.745901 L355.195251,300.305292 C356.61032,298.250852 356.110451,295.424833 354.078818,293.994162 L346.724139,288.813438 C344.693425,287.382767 341.900044,287.888475 340.485894,289.943846 L332.804096,301.104758 C331.389947,303.159199 331.889815,305.985217 333.92053,307.415889 L344.953467,315.186509 Z" id="Fill-74" fill="#98CA3F"></path>
                <path d="M402.434528,460 L394.828133,459.276621 C397.062236,435.446634 392.2487,412.572541 380.523091,401.4063 C362.097002,383.861591 332.441771,388.152963 332.144074,388.198174 L331,380.589777 C331.342581,380.537184 339.516891,379.322941 350.287121,380.53903 C364.71857,382.169401 376.989195,387.451728 385.771723,395.814875 C399.293592,408.690837 404.900377,433.689856 402.434528,460" id="Fill-76" fill="#272743"></path>
                <path d="M346,384.500456 C346,393.060832 339.060832,400 330.499544,400 C321.939168,400 315,393.060832 315,384.500456 C315,375.940081 321.939168,369 330.499544,369 C339.060832,369 346,375.940081 346,384.500456" id="Fill-78" fill="#272743"></path>
                <g id="Group-82" transform="translate(35.000000, 450.000000)">
                    <mask id="mask-4" fill="white">
                        <use xlink:href="#path-3"></use>
                    </mask>
                    <g id="Clip-81"></g>
                    <path d="M620.592241,0.732921429 L3.60371521,0.732921429 C1.79531344,0.732921429 0.328867356,2.21027857 0.328867356,4.03213571 L0.328867356,8.88949286 C0.328867356,10.71135 1.79531344,12.1887071 3.60371521,12.1887071 L620.592241,12.1887071 C622.400643,12.1887071 623.867089,10.71135 623.867089,8.88949286 L623.867089,4.03213571 C623.867089,2.21027857 622.400643,0.732921429 620.592241,0.732921429" id="Fill-80" fill="#98CA3F" mask="url(#mask-4)"></path>
                </g>
                <path d="M265.435517,313.339335 C266.116772,313.43569 266.661233,312.707672 266.800745,312.097421 C267.684928,308.250344 265.595865,305.268681 261.143245,306.158184 C256.772158,307.032519 245.028656,312.223219 242.120638,316.843815 C241.741961,317.445144 242.309976,318.133014 243.057364,317.977775 C243.057364,317.977775 254.913201,311.844935 265.435517,313.339335" id="Fill-83" fill="#FF8D43"></path>
                <path d="M288.144569,306.849633 C287.725161,307.221342 287.019579,306.841311 286.643331,306.389158 C284.269499,303.534764 284.321104,300.138526 287.762692,298.986413 C291.142354,297.854642 301.529983,297.204613 305.636807,299.844488 C306.171623,300.188458 306.101252,301.009546 305.521399,301.198175 C305.521399,301.198175 294.622411,301.104785 288.144569,306.849633" id="Fill-85" fill="#FF8D43"></path>
                <path d="M271,330 C271,333.866334 267.866123,337 264.000472,337 C260.133877,337 257,333.866334 257,330 C257,326.133666 260.133877,323 264.000472,323 C267.866123,323 271,326.133666 271,330" id="Fill-87" fill="#272743"></path>
                <path d="M308,320.5 C308,324.090372 305.089866,327 301.500915,327 C297.911049,327 295,324.090372 295,320.5 C295,316.909628 297.911049,314 301.500915,314 C305.089866,314 308,316.909628 308,320.5" id="Fill-89" fill="#272743"></path>
                <path d="M271,329.572828 C271,329.572828 268.434728,318.909188 253.191143,322.889986 L246.28772,324.880385 L250.027152,326.302756 L246,328.577629 L251.465753,330 L253.765652,326.870784 C253.765652,326.870784 264.072368,323.743408 271,329.572828" id="Fill-91" fill="#272743"></path>
                <path d="M291.29277,325 C291.29277,325 288.245866,314.884713 301.810764,311.414045 L308.041665,310 L305.841829,312.868888 L310,312.981084 L306.477357,316.621438 L303.24161,315.019163 C303.24161,315.019163 293.864844,316.998825 291.29277,325" id="Fill-93" fill="#272743"></path>
                <path d="M457,326.5 C457,330.090432 454.089706,333 450.500468,333 C446.910294,333 444,330.090432 444,326.5 C444,322.909568 446.910294,320 450.500468,320 C454.089706,320 457,322.909568 457,326.5" id="Fill-95" fill="#272743"></path>
                <path d="M495,314.5 C495,318.090432 492.090432,321 488.5,321 C484.909568,321 482,318.090432 482,314.5 C482,310.910504 484.909568,308 488.5,308 C492.090432,308 495,310.910504 495,314.5" id="Fill-97" fill="#272743"></path>
                <path d="M457.897327,323.139879 C456.310063,321.121056 452.536425,317.823803 445.529855,319.424678 C442.307285,320.162234 439.439848,322.003286 437.378759,324.596079 L436.102354,326.19979 C435.929969,326.41822 435.980837,326.737827 436.21351,326.889121 L437.347674,327.630459 C438.516691,328.394491 440.088883,327.928318 440.657849,326.650833 L441.123196,325.605963 C441.166527,325.508568 441.241887,325.429138 441.337029,325.379968 C442.490974,324.778576 450.22194,321.004749 457.356621,323.866087 C457.799359,324.042912 458.193114,323.516221 457.897327,323.139879" id="Fill-99" fill="#272743"></path>
                <path d="M476.003818,315.467997 C476.308603,312.889114 477.790301,308.053351 484.433153,305.746784 C487.488351,304.686184 490.805187,304.76549 493.829171,305.919729 L495.700113,306.633484 C495.953489,306.729989 496.071914,307.033837 495.954407,307.286088 L495.383393,308.523454 C494.795855,309.799041 493.250814,310.226148 492.132655,309.42162 L491.218299,308.764239 C491.132923,308.703088 491.030103,308.674423 490.927284,308.680156 C489.663159,308.769017 481.321955,309.582144 476.820863,315.809109 C476.540864,316.19704 475.9469,315.948611 476.003818,315.467997" id="Fill-101" fill="#272743"></path>
            </g>
        </g>
    </g>
</svg>