<?xml version="1.0" encoding="UTF-8"?>
<svg width="60px" height="44px" viewBox="0 0 60 44" version="1.1" xmlns="http://www.w3.org/2000/svg" xmlns:xlink="http://www.w3.org/1999/xlink">
    <!-- Generator: Sketch 53.2 (72643) - https://sketchapp.com -->
    <title>Group 47</title>
    <desc>Created with Sketch.</desc>
    <g id="Page-1" stroke="none" stroke-width="1" fill="none" fill-rule="evenodd">
        <g id="/" transform="translate(-25.000000, -60.000000)">
            <g id="barra" transform="translate(0.000000, 51.000000)">
                <g id="conference-badge" transform="translate(25.000000, 9.000000)">
                    <g id="Group-47">
                        <path d="M2.47159091,12.6721073 L15.4936255,9.40450908 C17.6988173,8.85127671 19.9292798,10.2129084 20.4590186,12.4360064 L24.0980114,27.7018514 L7.07813882,32.79375 L2.47159091,12.6721073 Z" id="Fill-1" fill="#98CA3F"></path>
                        <path d="M17.9190341,19.1688708 L22.5077308,35.8875 L51.4368605,27.2336016 C53.5524326,26.6003661 54.9992729,24.6533987 54.9928766,22.4484109 L54.9455441,6.80625 L17.9190341,19.1688708 Z" id="Fill-3" fill="#98CA3F"></path>
                        <path d="M9.88636364,41.4381347 L1.7357849,10.574877 C1.60826607,10.0880289 1.12350698,9.80044886 0.653125007,9.93178462 C0.1818054,10.0637674 -0.0969857741,10.5664663 0.0311581511,11.0542849 L8.00452321,41.45625 L9.88636364,41.4381347 Z" id="Fill-5" fill="#FFFFFF"></path>
                        <polygon id="Fill-7" fill="#06BE9F" points="42.7109873 19.8 32.6236274 21.2868045 27.8053977 21.997163 31.5470197 37.125 38.3001141 37.125 41.9505463 37.125 47.578125 36.2147514"></polygon>
                        <path d="M47.9168565,34.3177979 C46.9220988,35.255504 45.7093599,35.9580676 44.3270094,36.3297135 C39.4827367,37.6314289 34.3972526,34.3760267 32.9678055,29.0581168 C31.5386766,23.7402068 34.306878,18.3742501 39.1511507,17.0725347 C40.3677083,16.7454354 41.5995403,16.7059798 42.7852304,16.9147125 C40.4377168,13.3958489 36.0373618,11.5783475 31.7156073,12.7101494 C29.7690516,13.2195716 28.1018937,14.2584621 26.8280565,15.6317702 C24.535595,18.102834 23.5160161,21.6560621 24.433128,25.1580616 L27.7292573,37.74375 L32.442105,37.74375 L48.8139205,37.74375 L47.9168565,34.3177979 Z" id="Fill-9" fill="#FFFFFF"></path>
                        <polygon id="Fill-11" fill="#C9C9C9" points="50.0497159 41.45625 28.8378506 41.45625 27.8053977 37.74375 49.0175831 37.74375"></polygon>
                        <path d="M41.2862406,21.2641503 C42.3625619,20.9741754 43.4385668,20.8264942 44.4886364,20.8074794 L44.2514219,19.8992083 C43.9582247,18.7770213 43.4882237,17.7483234 42.8800058,16.8343479 C41.7015241,16.6267702 40.477181,16.6660674 39.2680196,16.9918534 C34.5945777,18.2499959 31.8653458,23.3221798 33.0080871,28.4625 C34.2106065,25.1602721 37.247901,22.351477 41.2862406,21.2641503" id="Fill-13" fill="#C9C9C9"></path>
                        <polygon id="Fill-15" fill="#FFB25B" points="26.6456464 19.8 16.5582865 21.2868045 11.7400568 21.997163 15.4816788 37.125 22.2347732 37.125 25.8852054 37.125 31.5127841 36.2147514"></polygon>
                        <path d="M31.8515156,34.3177979 C30.8567578,35.255504 29.644019,35.9580676 28.2616685,36.3297135 C23.4173957,37.6314289 18.3315935,34.3760267 16.9024646,29.0581168 C15.4730175,23.7402068 18.241537,18.3742501 23.0858098,17.0725347 C24.3023673,16.7454354 25.5341994,16.7059798 26.7198895,16.9147125 C24.3723759,13.3958489 19.9720209,11.5783475 15.6502664,12.7101494 C13.7037107,13.2195716 12.0365528,14.2584621 10.7627156,15.6317702 C8.4702541,18.102834 7.45067517,21.6560621 8.36778706,25.1580616 L11.6639164,37.74375 L16.3767641,37.74375 L32.7485795,37.74375 L31.8515156,34.3177979 Z" id="Fill-17" fill="#FFFFFF"></path>
                        <polygon id="Fill-19" fill="#C9C9C9" points="33.984375 41.45625 12.7725097 41.45625 11.7400568 37.74375 32.9522422 37.74375"></polygon>
                        <path d="M25.2205834,21.2641503 C26.2969047,20.9741754 27.3729096,20.8264942 28.4232955,20.8074794 L28.1857647,19.8992083 C27.8925675,18.7770213 27.4225665,17.7483234 26.8143486,16.8343479 C25.6361832,16.6267702 24.4118401,16.6660674 23.2026787,16.9918534 C18.5292368,18.2499959 15.8000049,23.3221798 16.9427462,28.4625 C18.1452656,25.1602721 21.1822438,22.351477 25.2205834,21.2641503" id="Fill-21" fill="#C9C9C9"></path>
                        <polygon id="Fill-23" fill="#FFFFFF" points="12.0491745 2.475 12.4313514 3.63137927 13.59375 3.65661841 12.6676799 4.39672958 13.0039416 5.56875 12.0491745 4.86987461 11.0944074 5.56875 11.4306691 4.39672958 10.5042614 3.65661841 11.6669976 3.63137927"></polygon>
                        <polygon id="Fill-25" fill="#FFFFFF" points="33.0575284 6.1875 33.439697 7.34384943 34.6022727 7.3690744 33.6760689 8.10921187 34.0123656 9.28125 33.0575284 8.58233382 32.1026912 9.28125 32.4389879 8.10921187 31.5127841 7.3690744 32.6753598 7.34384943"></polygon>
                        <polygon id="Fill-27" fill="#FFFFFF" points="40.163503 0 40.4692482 0.92510903 41.3991477 0.945427142 40.6583037 1.53750962 40.9272629 2.475 40.163503 1.91593445 39.3997432 2.475 39.6687024 1.53750962 38.9275568 0.945427142 39.8577579 0.92510903"></polygon>
                        <path d="M24.0980114,2.47519575 C24.0980114,2.81657506 23.8212182,3.09375 23.4799182,3.09375 C23.1386181,3.09375 22.8622159,2.81657506 22.8622159,2.47519575 C22.8622159,2.13342494 23.1386181,1.85625 23.4799182,1.85625 C23.8212182,1.85625 24.0980114,2.13342494 24.0980114,2.47519575" id="Fill-29" fill="#FFFFFF"></path>
                        <path d="M27.8053977,9.59047733 C27.8053977,9.7614827 27.6670712,9.9 27.4965963,9.9 C27.3258265,9.9 27.1875,9.7614827 27.1875,9.59047733 C27.1875,9.4197673 27.3258265,9.28125 27.4965963,9.28125 C27.6670712,9.28125 27.8053977,9.4197673 27.8053977,9.59047733" id="Fill-31" fill="#FFFFFF"></path>
                        <path d="M3.70738636,4.021875 C3.70738636,4.19250358 3.56905986,4.33125 3.39858497,4.33125 C3.22781514,4.33125 3.08948864,4.19250358 3.08948864,4.021875 C3.08948864,3.85124642 3.22781514,3.7125 3.39858497,3.7125 C3.56905986,3.7125 3.70738636,3.85124642 3.70738636,4.021875" id="Fill-33" fill="#FFFFFF"></path>
                        <path d="M44.4886364,4.021875 C44.4886364,4.19250358 44.3503099,4.33125 44.179835,4.33125 C44.0090651,4.33125 43.8707386,4.19250358 43.8707386,4.021875 C43.8707386,3.85124642 44.0090651,3.7125 44.179835,3.7125 C44.3503099,3.7125 44.4886364,3.85124642 44.4886364,4.021875" id="Fill-35" fill="#FFFFFF"></path>
                        <g id="Group-39" transform="translate(30.894886, 34.031250)">
                            <polygon id="Clip-38" points="0.132384588 0.184119666 7.76804695 0.184119666 7.76804695 9.28125 0.132384588 9.28125"></polygon>
                            <path d="M7.70811967,9.28141574 L6.90145419,9.19954185 C7.13841797,6.50797935 6.6277255,3.92381417 5.38451527,2.66255859 C3.43041371,0.681011719 0.285314276,1.16562556 0.253801491,1.17059766 L0.132384588,0.250759487 C0.168840554,0.244792969 1.03575107,0.107563058 2.17793501,0.245124442 C3.70846768,0.429423549 5.0097603,1.08640346 5.94093217,2.03110212 C7.3750728,3.48560658 7.96949041,6.3094269 7.70811967,9.28141574" id="Fill-37" fill="#27273C"></path>
                        </g>
                        <path d="M32.7485795,34.6501737 C32.7485795,35.6751503 31.918547,36.50625 30.8948864,36.50625 C29.8712258,36.50625 29.0411932,35.6751503 29.0411932,34.6501737 C29.0411932,33.6251971 29.8712258,32.79375 30.8948864,32.79375 C31.918547,32.79375 32.7485795,33.6251971 32.7485795,34.6501737" id="Fill-40" fill="#27273C"></path>
                        <g id="Group-44" transform="translate(51.285511, 34.031250)">
                            <polygon id="Clip-43" points="0.271009943 0.238446518 7.89426136 0.238446518 7.89426136 7.14565859 0.271009943 7.14565859"></polygon>
                            <path d="M5.52314063,2.59316511 C6.47470313,3.53323467 6.99651776,5.22742598 7.08302344,7.14565859 L7.89432315,7.14565859 C7.80256534,4.98950315 7.19548082,3.07998685 6.07955753,1.97818141 C5.14838565,1.05812707 3.84709304,0.477040109 2.31686932,0.29787163 C1.17437642,0.163898804 0.307465909,0.297548804 0.271009943,0.303036848 L0.392426847,1.14012489 C0.42424858,1.13495967 3.56903906,0.662987935 5.52314063,2.59316511" id="Fill-42" fill="#FFFFFF"></path>
                        </g>
                        <path d="M53.1392045,34.6501737 C53.1392045,35.6751503 52.309172,36.50625 51.2855114,36.50625 C50.2618508,36.50625 49.4318182,35.6751503 49.4318182,34.6501737 C49.4318182,33.6251971 50.2618508,32.79375 51.2855114,32.79375 C52.309172,32.79375 53.1392045,33.6251971 53.1392045,34.6501737" id="Fill-45" fill="#FFFFFF"></path>
                    </g>
                </g>
            </g>
        </g>
    </g>
</svg>